Coordinates
version=1
nRows=49
nColumns=24
inDegrees=yes

Units are S.I. units (second, meters, Newtons, ...)
If the header above contains a line with 'inDegrees', this indicates whether rotational values are in degrees (yes) or radians (no).

endheader
time	pelvis_tilt	pelvis_list	pelvis_rotation	pelvis_tx	pelvis_ty	pelvis_tz	hip_flexion_r	hip_adduction_r	hip_rotation_r	knee_angle_r	ankle_angle_r	subtalar_angle_r	mtp_angle_r	hip_flexion_l	hip_adduction_l	hip_rotation_l	knee_angle_l	ankle_angle_l	subtalar_angle_l	mtp_angle_l	lumbar_extension	lumbar_bending	lumbar_rotation
2.175000	10.927725	2.174735	-177.475134	0.292452	0.633703	-1.220496	60.858040	-27.688704	-18.057530	-89.673264	33.381548	8.539105	0.000000	65.148568	-30.511685	-9.201426	-87.870718	31.766551	21.777016	0.000000	-7.262090	1.975111	1.773112
2.180000	10.994114	2.186215	-177.382055	0.292774	0.638275	-1.221060	60.320480	-27.488605	-18.418105	-88.673427	32.989445	8.310308	0.000000	64.637849	-30.278436	-9.421717	-86.825541	31.237415	21.619147	0.000000	-7.216653	1.964100	1.523321
2.185000	11.066042	2.210235	-177.401648	0.292554	0.642479	-1.221100	59.829260	-27.280222	-18.677119	-87.757389	32.520717	8.330273	0.000000	64.110943	-30.161319	-9.711253	-85.923264	30.804951	21.545488	0.000000	-7.086734	1.944539	1.639310
2.190000	11.007466	2.199304	-177.540594	0.291592	0.646505	-1.220638	59.216012	-27.118748	-18.886686	-86.915345	32.195645	8.373675	0.000000	63.363180	-30.151376	-10.116055	-85.169885	30.581241	21.456854	0.000000	-6.987881	2.051411	1.641578
2.195000	11.017776	2.219843	-177.584065	0.291214	0.650789	-1.220680	58.638622	-26.904301	-19.157041	-85.988499	31.831585	8.416910	0.000000	62.670645	-30.041032	-10.601242	-84.184192	30.332905	21.064574	0.000000	-6.914406	2.067804	1.640624
2.200000	11.074360	2.184795	-177.591671	0.290940	0.655037	-1.220682	58.138729	-26.755288	-19.400214	-85.057822	31.412409	8.405468	0.000000	62.132045	-29.870513	-10.770932	-83.299655	29.811770	21.233359	0.000000	-6.809182	1.947317	1.787478
2.205000	11.180528	2.188485	-177.485684	0.291253	0.659610	-1.221301	57.632678	-26.533081	-19.705806	-84.018222	30.977750	8.287380	0.000000	61.648320	-29.617028	-11.044354	-82.171144	29.186739	20.973963	0.000000	-6.724563	1.860001	1.639392
2.210000	11.144140	2.160979	-177.609177	0.290285	0.663603	-1.220865	57.026849	-26.376512	-19.906649	-83.122936	30.609502	8.391735	0.000000	60.899792	-29.559038	-11.468710	-81.371943	28.958461	20.948630	0.000000	-6.596973	1.936610	1.655236
2.215000	11.162574	2.160353	-177.624303	0.289872	0.667867	-1.220892	56.450965	-26.192489	-20.183792	-82.164245	30.213314	8.419197	0.000000	60.243834	-29.413446	-11.802962	-80.418307	28.592367	20.859583	0.000000	-6.510503	1.900612	1.713523
2.220000	11.287179	2.177399	-177.573350	0.290046	0.672285	-1.221317	55.990624	-25.958793	-20.500029	-81.147980	29.758441	8.251288	0.000000	59.760837	-29.202057	-12.080449	-79.346479	28.052228	20.626632	0.000000	-6.370317	1.871507	1.587065
2.225000	11.350652	2.204898	-177.621330	0.289712	0.676438	-1.221310	55.481780	-25.724608	-20.773938	-80.185030	29.295000	8.204621	0.000000	59.237786	-29.097045	-12.299264	-78.387588	27.571905	20.591190	0.000000	-6.245582	1.853705	1.713317
2.230000	11.230456	2.120737	-177.765426	0.288577	0.680304	-1.220817	54.828049	-25.617728	-20.917145	-79.333964	28.980075	8.371158	0.000000	58.318380	-29.010035	-12.920340	-77.573589	27.428040	20.322712	0.000000	-6.197449	1.840281	1.796758
2.235000	11.296803	2.095112	-177.773913	0.288266	0.684452	-1.220895	54.309404	-25.439549	-21.165210	-78.334658	28.556710	8.436363	0.000000	57.769160	-28.826530	-13.110541	-76.596108	26.932017	20.438881	0.000000	-6.050162	1.820650	1.711362
2.240000	11.274171	2.101926	-177.792549	0.287756	0.688549	-1.220965	53.687211	-25.233133	-21.426043	-77.359439	28.148093	8.502845	0.000000	57.075026	-28.684115	-13.476275	-75.617243	26.594200	20.306406	0.000000	-5.993323	1.802247	1.726427
2.245000	11.355011	2.103831	-177.820070	0.287339	0.692542	-1.220957	53.196429	-25.028711	-21.664041	-76.378707	27.684680	8.578264	0.000000	56.554810	-28.535989	-13.739443	-74.729438	26.075537	20.270552	0.000000	-5.821613	1.782745	1.776474
2.250000	11.340900	2.109975	-177.872661	0.286832	0.696644	-1.221012	52.605292	-24.801762	-21.916672	-75.404729	27.308028	8.549028	0.000000	55.886091	-28.402983	-14.039004	-73.755664	25.678809	20.086095	0.000000	-5.751966	1.764665	1.827563
2.255000	11.354112	2.123432	-177.931818	0.286312	0.700600	-1.220969	52.045663	-24.584591	-22.179025	-74.437373	26.883853	8.575652	0.000000	55.196065	-28.250910	-14.430338	-72.648185	25.381244	19.808865	0.000000	-5.662022	1.743528	1.949157
2.260000	11.368098	2.113526	-177.966968	0.285855	0.704512	-1.220998	51.488369	-24.377257	-22.418964	-73.454679	26.453651	8.586122	0.000000	54.552255	-28.089737	-14.729201	-71.638150	25.025781	19.748679	0.000000	-5.567761	1.725524	1.943988
2.265000	11.393416	2.090899	-178.012042	0.285383	0.708348	-1.220982	50.958578	-24.182386	-22.627197	-72.490604	26.021373	8.658404	0.000000	53.925250	-27.915995	-15.033518	-70.674451	24.607444	19.597679	0.000000	-5.455831	1.691263	1.976493
2.270000	11.467394	2.100878	-177.950263	0.285562	0.712433	-1.221444	50.463098	-23.927697	-22.902362	-71.437215	25.514768	8.519216	0.000000	53.431444	-27.663228	-15.188882	-69.568915	24.016031	19.400256	0.000000	-5.384437	1.621740	1.860817
2.275000	11.550217	2.203607	-178.025238	0.284838	0.716415	-1.221150	49.896216	-23.636117	-23.245292	-70.360374	25.042905	8.581242	0.000000	52.906721	-27.585968	-15.427678	-68.648932	23.514601	19.159078	0.000000	-5.025892	1.003259	3.794596
2.280000	11.486148	2.167190	-178.186228	0.283606	0.720024	-1.220629	49.288141	-23.472723	-23.408724	-69.457761	24.669228	8.769042	0.000000	52.096527	-27.496284	-15.857272	-67.756249	23.346082	19.081594	0.000000	-4.907141	1.090374	3.813727
2.285000	11.492564	2.084999	-178.217337	0.283314	0.723560	-1.220840	48.820861	-23.314507	-23.553799	-68.560781	24.288821	8.763689	0.000000	51.479911	-27.286663	-16.187100	-66.800479	22.839894	19.166399	0.000000	-4.993714	1.625359	2.195986
2.290000	11.507438	2.099136	-178.271253	0.282715	0.727302	-1.220876	48.246557	-23.074240	-23.800195	-67.545475	23.856010	8.846062	0.000000	50.850957	-27.147016	-16.461465	-65.811972	22.413312	18.930928	0.000000	-4.882436	1.638978	2.202694
2.295000	11.523059	2.081882	-178.305610	0.282174	0.730954	-1.220926	47.695590	-22.874639	-24.035932	-66.553149	23.416716	8.901987	0.000000	50.243653	-26.972736	-16.753029	-64.836508	22.011507	19.040935	0.000000	-4.773815	1.670145	2.070945
2.300000	11.537284	2.072511	-178.370626	0.281550	0.734558	-1.220780	47.162296	-22.671751	-24.253380	-65.582224	22.967549	8.973435	0.000000	49.600008	-26.814729	-17.075623	-63.807105	21.682931	19.020491	0.000000	-4.675488	1.616394	2.211583
2.305000	11.541932	2.073791	-178.447915	0.280900	0.738067	-1.220615	46.632535	-22.460185	-24.477524	-64.634268	22.547489	9.022579	0.000000	48.975717	-26.659824	-17.349806	-62.863558	21.257072	18.895990	0.000000	-4.581118	1.600241	2.338498
2.310000	11.583792	2.086381	-178.513462	0.280254	0.741617	-1.220523	46.113287	-22.225889	-24.710666	-63.637253	22.084110	9.076769	0.000000	48.399052	-26.501366	-17.596631	-61.909087	20.790294	18.813253	0.000000	-4.428088	1.679206	2.277221
2.315000	11.633807	2.150938	-178.575400	0.279476	0.745265	-1.220204	45.533789	-21.959795	-25.001368	-62.558484	21.601041	9.196120	0.000000	47.830674	-26.367502	-17.833064	-60.937196	20.371381	18.688623	0.000000	-4.119338	1.021794	4.141897
2.320000	11.617361	2.057293	-178.584351	0.279034	0.748572	-1.220396	45.021883	-21.831862	-25.161693	-61.642426	21.179166	9.224758	0.000000	47.207272	-26.131237	-18.145025	-59.999885	19.905746	18.636990	0.000000	-4.220607	1.676031	2.201181
2.325000	11.674780	2.149492	-178.642515	0.278201	0.752131	-1.220031	44.406476	-21.506162	-25.328494	-60.467012	20.889461	9.638839	0.000000	46.667032	-25.992481	-18.318127	-59.038293	19.489812	18.479337	0.000000	-3.886901	1.023027	4.169698
2.330000	11.659723	2.071409	-178.688379	0.277637	0.755372	-1.220135	43.904700	-21.366062	-25.505484	-59.566068	20.472489	9.715694	0.000000	46.022371	-25.768571	-18.620325	-58.076602	19.042056	18.378506	0.000000	-3.966547	1.719438	2.260324
2.335000	11.655517	2.086294	-178.725361	0.276951	0.758658	-1.220041	43.348742	-21.154877	-25.765854	-58.604544	20.035462	9.803655	0.000000	45.423605	-25.604105	-18.855186	-57.120689	18.584901	18.263461	0.000000	-3.877372	1.725289	2.286566
2.340000	11.669820	2.090480	-178.773969	0.276219	0.761882	-1.219810	42.812327	-20.945734	-25.984201	-57.617526	19.591517	9.891543	0.000000	44.841328	-25.428790	-19.106093	-56.193135	18.149163	18.177877	0.000000	-3.770146	1.701786	2.421583
2.345000	11.677210	2.081157	-178.807195	0.275510	0.765071	-1.219683	42.262015	-20.742286	-26.188113	-56.618137	19.154429	10.005689	0.000000	44.244409	-25.220991	-19.335691	-55.224053	17.738306	18.070308	0.000000	-3.662348	1.706090	2.430242
2.350000	11.742374	2.089828	-178.863082	0.274804	0.768141	-1.219474	41.778300	-20.515619	-26.384683	-55.609705	18.681747	10.142800	0.000000	43.721552	-25.033423	-19.553770	-54.280496	17.315791	17.956639	0.000000	-3.497910	1.743072	2.458659
2.355000	11.740251	2.076498	-178.897954	0.274093	0.771270	-1.219349	41.240212	-20.311182	-26.578818	-54.635196	18.240018	10.199103	0.000000	43.121682	-24.821100	-19.777564	-53.314545	16.873703	17.835542	0.000000	-3.397603	1.804325	2.334455
2.360000	11.775323	2.084115	-178.950130	0.273295	0.774265	-1.219105	40.736975	-20.095559	-26.784613	-53.665174	17.788443	10.300596	0.000000	42.567790	-24.643559	-20.019880	-52.381209	16.438900	17.721976	0.000000	-3.254061	1.803096	2.443223
2.365000	11.723119	2.065309	-178.963912	0.272570	0.777315	-1.218914	40.139320	-19.909023	-26.982790	-52.686485	17.380468	10.403049	0.000000	41.931612	-24.407654	-20.214534	-51.428305	16.020910	17.596936	0.000000	-3.218431	1.793465	2.449976
2.370000	11.725896	2.044541	-178.986876	0.271850	0.780234	-1.218748	39.595344	-19.709552	-27.145497	-51.682830	16.963613	10.559837	0.000000	41.355089	-24.175961	-20.417321	-50.476390	15.605450	17.483251	0.000000	-3.112428	1.773480	2.474003
2.375000	11.762644	2.043942	-179.017206	0.271084	0.783089	-1.218600	39.082691	-19.479630	-27.315915	-50.673139	16.515795	10.653863	0.000000	40.822675	-23.969593	-20.607023	-49.536148	15.163487	17.366266	0.000000	-2.956192	1.840395	2.376488
2.380000	11.732640	2.013535	-179.014210	0.270337	0.785915	-1.218405	38.517780	-19.308007	-27.501893	-49.706468	16.079551	10.735507	0.000000	40.226064	-23.719852	-20.798787	-48.594433	14.729320	17.233367	0.000000	-2.902582	1.787086	2.424755
2.385000	11.824340	2.018093	-179.080526	0.269578	0.788620	-1.218117	38.098964	-19.077828	-27.661702	-48.733794	15.602939	10.828021	0.000000	39.739362	-23.528791	-21.026585	-47.649094	14.303765	17.132016	0.000000	-2.680626	1.834287	2.491064
2.390000	11.769190	1.981384	-179.089431	0.268800	0.791415	-1.217914	37.522643	-18.905082	-27.842049	-47.782466	15.195120	10.817505	0.000000	39.113424	-23.276580	-21.219885	-46.715028	13.870910	16.993303	0.000000	-2.653601	1.824485	2.465050
2.395000	11.828930	2.000905	-179.147649	0.267975	0.794080	-1.217636	37.056118	-18.655154	-28.023348	-46.799658	14.697472	10.842303	0.000000	38.605536	-23.088248	-21.414209	-45.780610	13.436220	16.850182	0.000000	-2.464904	1.900913	2.508475
2.400000	11.824636	1.926227	-179.166391	0.267164	0.796718	-1.217375	36.546222	-18.504171	-28.140951	-45.843394	14.245002	10.840688	0.000000	38.017146	-22.792517	-21.627827	-44.835144	13.018357	16.693075	0.000000	-2.359985	1.885912	2.410821
2.405000	11.791815	1.924599	-179.161734	0.266386	0.799276	-1.217211	35.978086	-18.287335	-28.320721	-44.870969	13.809672	10.889644	0.000000	37.449828	-22.568977	-21.782864	-43.915617	12.600625	16.560508	0.000000	-2.296740	1.857353	2.496697
2.410000	11.807675	1.902352	-179.188502	0.265603	0.801768	-1.217018	35.486521	-18.064371	-28.425564	-43.899964	13.354520	10.883652	0.000000	36.911636	-22.338898	-21.982550	-42.989633	12.186714	16.452019	0.000000	-2.166464	1.887796	2.438293
2.415000	11.853737	1.933623	-179.259155	0.264696	0.804204	-1.216749	35.020696	-17.785478	-28.564386	-42.929333	12.894337	10.859882	0.000000	36.399434	-22.173981	-22.175175	-42.076565	11.765131	16.301955	0.000000	-1.993553	1.930066	2.587798
